<?xml version="1.0" encoding="utf-8"?>
<!-- Generator: Adobe Illustrator 24.0.2, SVG Export Plug-In . SVG Version: 6.00 Build 0)  -->
<svg version="1.1" id="Layer_1" xmlns="http://www.w3.org/2000/svg" xmlns:xlink="http://www.w3.org/1999/xlink" x="0px" y="0px"
	 viewBox="0 0 512 512" style="enable-background:new 0 0 512 512;" xml:space="preserve">
<style type="text/css">
	.st0{fill:#C5E9F9;}
	.st1{fill:#5E889E;}
</style>
<circle class="st0" cx="256.3281" cy="255.9678" r="248.873"/>
<g>
	<g>
		<path class="st1" d="M409.8088,153.692l-43.9011,43.9011c-4.0602,4.065-9.668,6.5743-15.8603,6.5743
			c-6.1986,0-11.8193-2.5093-15.8811-6.5743l-10.5815-10.5767c-4.0618-4.065-6.5647-9.6761-6.5647-15.8747
			s2.5029-11.8065,6.5647-15.8683l43.9011-43.9011c-26.84-10.5157-58.5364-4.9432-80.2245,16.7465
			c-29.2192,29.2144-29.2192,76.5865,0,105.7993c29.2209,29.2209,76.5865,29.2209,105.7993,0
			C414.7568,212.2316,420.3261,180.5384,409.8088,153.692z"/>
		<path class="st1" d="M174.2777,289.0621l-45.5563,42.2395c-8.0529,7.4718-13.1727,18.0822-13.3975,29.9337
			c-0.2248,11.8514,4.4905,22.6433,12.2608,30.4121l1.957,1.9554c7.764,7.7672,18.5558,12.4856,30.4073,12.2608
			c11.8579-0.2216,22.4571-5.3413,29.9321-13.4007l42.2395-45.5563L174.2777,289.0621z M172.2885,375.344
			c-7.2952,7.3096-19.1402,7.3096-26.4482,0c-7.3016-7.3016-7.3016-19.1466,0-26.4482c7.308-7.3096,19.153-7.3096,26.4482,0
			C179.5901,356.1974,179.5901,368.0424,172.2885,375.344z"/>
	</g>
	<g>
		<path class="st1" d="M245.518,217.1026c-2.893,0-5.5115,1.1672-7.4043,3.0632l-48.6677,48.6725
			c-1.8992,1.8944-3.0664,4.5145-3.0664,7.4044c0,2.8946,1.1672,5.5131,3.0664,7.4043l108.9701,108.9781
			c17.5428,17.5332,45.9545,17.5267,63.4828,0c17.5364-17.5315,17.5364-45.9496,0-63.4828L252.9224,220.1658
			C251.0295,218.2697,248.4127,217.1026,245.518,217.1026z M320.1089,364.5858c2.9075,2.9107,2.9075,7.6708,0,10.5783
			c-2.9075,2.9123-7.674,2.9123-10.5815,0l-95.2194-95.2194c-2.9123-2.9075-2.9123-7.6676,0-10.5815
			c2.9075-2.9075,7.6676-2.9075,10.5799,0L320.1089,364.5858z M344.446,340.252c2.9075,2.9107,2.9075,7.6708,0,10.5815
			c-2.9075,2.9107-7.6741,2.9107-10.5815,0l-95.2194-95.2242c-2.9187-2.9107-2.9187-7.6708,0-10.5799
			c2.901-2.9107,7.6676-2.9107,10.5735,0.0032L344.446,340.252z"/>
		<path class="st1" d="M124.2935,183.2002l11.9028-0.4142l62.245,62.2418l15.8667-15.8715l-62.237-62.237l0.411-11.906
			c0.0321-1.0098-0.1862-2.047-0.6936-3.007c-0.5057-0.9617-1.2506-1.7227-2.1112-2.2653l-39.9292-25.1382l-15.8747,15.8651
			l25.1526,39.9388c0.533,0.8605,1.3036,1.591,2.2589,2.1015C122.2466,183.0156,123.2805,183.2355,124.2935,183.2002z"/>
	</g>
</g>
</svg>
