<?xml version="1.0" encoding="UTF-8" standalone="no"?> <svg id="Layer_1" data-name="Layer 1" xmlns="http://www.w3.org/2000/svg" viewBox="0 0 128 128"><defs><style>.cls-1{fill:#1d75b8;}.cls-2{fill:#2d3e50;}</style></defs><title>v</title><path class="cls-1" d="M91.4138,99.94018a4.41213,4.41213,0,0,0-.85-.13345c-1.91387-.14872-3.82708-.31372-5.74351-.41448a.78182.78182,0,0,1-.80175-.60364c-.76246-1.95472-1.5452-3.90156-2.32443-5.84968a1.47668,1.47668,0,0,0-1.44485-1.01382,1.57363,1.57363,0,0,0-1.50226.95135c-.08067.15958-.14016.3299-.20832.49566-.74407,1.80849-1.49113,3.6158-2.22822,5.42711-.10825.26586-.2113.4495-.5571.46953-2.18608.127-4.3706.281-6.55575.424A1.55194,1.55194,0,0,0,67.75,101.159a2.03632,2.03632,0,0,0,.99029,1.74345c1.48751,1.24838,2.96728,2.50571,4.45543,3.75336a.589.589,0,0,1,.21609.69649c-.54946,2.09567-1.07216,4.19835-1.5999,6.29971a1.54376,1.54376,0,0,0,1.11742,1.922,1.96091,1.96091,0,0,0,1.53444-.334c1.67528-1.04874,3.36608-2.073,5.03283-3.13524a.79166.79166,0,0,1,1.00414-.00892c1.73384,1.12388,3.48916,2.21492,5.23945,3.31357a1.60947,1.60947,0,0,0,2.50549-1.78725c-.47706-1.92976-.92993-3.86574-1.43413-5.78842a.98625.98625,0,0,1,.38473-1.18827c1.585-1.27079,3.13562-2.58449,4.70227-3.87841a1.4195,1.4195,0,0,0,.637-1.2069A1.57205,1.57205,0,0,0,91.4138,99.94018Z"/><path class="cls-1" d="M59.12979,99.94018a4.41219,4.41219,0,0,0-.85013-.13345c-1.91373-.14872-3.82694-.31372-5.7434-.41448a.78173.78173,0,0,1-.80175-.60364c-.76243-1.95472-1.54517-3.90156-2.32443-5.84968a1.47674,1.47674,0,0,0-1.44483-1.01382,1.5735,1.5735,0,0,0-1.50226.95135c-.0807.15958-.14018.3299-.20832.49566-.74407,1.80849-1.49113,3.6158-2.22822,5.42711-.10825.26586-.2113.4495-.55723.46953-2.18608.127-4.37046.281-6.55561.424A1.55192,1.55192,0,0,0,35.466,101.159a2.03626,2.03626,0,0,0,.99029,1.74345c1.48738,1.24838,2.96726,2.50571,4.45543,3.75336a.589.589,0,0,1,.21609.69649c-.54946,2.09567-1.07216,4.19835-1.5999,6.29971a1.54376,1.54376,0,0,0,1.11728,1.922,1.96113,1.96113,0,0,0,1.53458-.334c1.67528-1.04874,3.36608-2.073,5.03283-3.13524a.79147.79147,0,0,1,1.004-.00892c1.734,1.12388,3.4893,2.21492,5.23959,3.31357a1.60945,1.60945,0,0,0,2.50547-1.78725c-.477-1.92976-.9299-3.86574-1.43424-5.78842a.98633.98633,0,0,1,.38484-1.18827c1.585-1.27079,3.13565-2.58449,4.7023-3.87841a1.41956,1.41956,0,0,0,.637-1.2069A1.57211,1.57211,0,0,0,59.12979,99.94018Z"/><path class="cls-1" d="M26.84576,99.94018a4.41191,4.41191,0,0,0-.85011-.13345c-1.91373-.14872-3.827-.31372-5.7434-.41448a.782.782,0,0,1-.80189-.60364c-.7623-1.95472-1.54506-3.90156-2.32429-5.84968a1.47682,1.47682,0,0,0-1.445-1.01382,1.57371,1.57371,0,0,0-1.50226.95135c-.0807.15958-.14.3299-.20821.49566-.74407,1.80849-1.49113,3.6158-2.22822,5.42711-.10822.26586-.2113.4495-.55721.46953-2.18608.127-4.37046.281-6.55564.424A1.55215,1.55215,0,0,0,3.1819,101.159a2.03639,2.03639,0,0,0,.99043,1.74345c1.48738,1.24838,2.96726,2.50571,4.45529,3.75336a.58882.58882,0,0,1,.2162.69649c-.54946,2.09567-1.07227,4.19835-1.59987,6.29971a1.54374,1.54374,0,0,0,1.11728,1.922,1.96072,1.96072,0,0,0,1.53444-.334c1.67539-1.04874,3.36619-2.073,5.03294-3.13524a.79147.79147,0,0,1,1.004-.00892c1.734,1.12388,3.48933,2.21492,5.23948,3.31357a1.60951,1.60951,0,0,0,2.5056-1.78725c-.47706-1.92976-.9299-3.86574-1.43424-5.78842a.98626.98626,0,0,1,.38484-1.18827c1.585-1.27079,3.13562-2.58449,4.70214-3.87841a1.41888,1.41888,0,0,0,.637-1.2069A1.572,1.572,0,0,0,26.84576,99.94018Z"/><path class="cls-1" d="M123.6978,99.94018a4.41213,4.41213,0,0,0-.85-.13345c-1.91387-.14872-3.82708-.31372-5.74351-.41448a.78182.78182,0,0,1-.80175-.60364c-.76243-1.95472-1.5452-3.90156-2.32443-5.84968a1.47666,1.47666,0,0,0-1.44485-1.01382,1.57357,1.57357,0,0,0-1.50224.95135c-.0807.15958-.14.3299-.20835.49566-.74407,1.80849-1.49113,3.6158-2.22822,5.42711-.10822.26586-.2113.4495-.5571.46953-2.18605.127-4.37057.281-6.55575.424A1.552,1.552,0,0,0,100.034,101.159a2.03659,2.03659,0,0,0,.99032,1.74345c1.48751,1.24838,2.96739,2.50571,4.4554,3.75336a.58877.58877,0,0,1,.21609.69649c-.54946,2.09567-1.07213,4.19835-1.59987,6.29971a1.54383,1.54383,0,0,0,1.11739,1.922,1.96088,1.96088,0,0,0,1.53447-.334c1.67526-1.04874,3.36605-2.073,5.0328-3.13524a.79166.79166,0,0,1,1.00414-.00892c1.734,1.12388,3.48919,2.21492,5.23945,3.31357a1.60946,1.60946,0,0,0,2.50549-1.78725c-.47706-1.92976-.92993-3.86574-1.4341-5.78842a.98637.98637,0,0,1,.38471-1.18827c1.585-1.27079,3.13562-2.58449,4.70227-3.87841a1.41924,1.41924,0,0,0,.637-1.2069A1.57193,1.57193,0,0,0,123.6978,99.94018Z"/><path class="cls-2" d="M29.41293,46.26314h9.75428a1.80745,1.80745,0,0,1,1.80745,1.80745V78.8398a1.80756,1.80756,0,0,1-1.80756,1.80756h-9.754a1.8077,1.8077,0,0,1-1.8077-1.8077V48.0707A1.80756,1.80756,0,0,1,29.41293,46.26314Z"/><path class="cls-2" d="M94.15106,36.17639H76.05764l.04406-.14574.75587-2.4303.73553-2.36255,2.19984-7.074L80.864,20.71324a5.33035,5.33035,0,0,0,.14235-.54232v-.00679a6.227,6.227,0,0,0,.15252-1.3863,6.34256,6.34256,0,0,0-.10168-1.13551A6.51508,6.51508,0,0,0,68.88873,15.717L51.28339,43.37581a17.52677,17.52677,0,0,1-5.95884,5.93172l-.01018.00339a2.39267,2.39267,0,0,0-1.22023,2.07438v26.869a2.36477,2.36477,0,0,0,1.63448,2.25252q.0809.02615.16426.04655c.16268.03976,8.37929,1.55852,8.37929,1.55852l4.9897.567a46.56889,46.56889,0,0,0,5.25754.29774h21.8429a7.06611,7.06611,0,0,0,6.91905-5.63209l7.11325-34.32128A6.82128,6.82128,0,0,0,94.15106,36.17639Z"/></svg>